<svg width="155" height="38" viewBox="0 0 155 38" fill="none" xmlns="http://www.w3.org/2000/svg">
<g clip-path="url(#clip0_43_2)">
<path d="M9.592 24.68H9.585C7.043 24.68 4.409 24.621 2.679 23.881C1.781 23.501 1.159 22.99 0.72 22.276C0.236 21.49 0 20.468 0 19.164C0 18.168 0.144 17.002 0.419 15.685C0.485 15.383 1.985 8.373 2.083 8C2.483 6.539 2.981 5.333 3.616 4.324C4.71 2.588 6.171 1.467 8.209 0.799C9.906 0.249 12.068 0 15.207 0H15.233C16.884 0 18.24 0.118 19.38 0.354C20.723 0.636 21.752 1.101 22.433 1.723C22.944 2.195 23.272 2.765 23.409 3.426C23.481 3.76 23.514 4.134 23.514 4.533C23.514 5.463 23.324 6.44 23.173 7.219C23.153 7.337 23.127 7.442 23.107 7.553L23.1 7.586H17.02L17.027 7.54C17.027 7.54 17.047 7.357 17.053 7.271C17.053 7.264 17.079 7.022 17.079 6.668C17.079 6.137 16.83 5.725 16.326 5.404C15.926 5.175 15.409 5.096 14.917 5.037C14.393 4.971 13.803 4.965 13.246 4.965C12.224 4.965 11.451 5.044 10.815 5.221C10.311 5.359 9.885 5.562 9.531 5.83C9.027 6.21 8.633 6.76 8.332 7.507C8.05 8.201 7.847 9.034 7.624 10.062L6.805 13.993C6.536 15.257 6.346 16.214 6.346 17.04C6.346 17.518 6.412 17.892 6.549 18.226C6.765 18.757 7.224 19.169 7.846 19.392C8.442 19.608 9.202 19.706 10.303 19.706C11.037 19.706 11.64 19.693 12.19 19.627C13.14 19.516 13.821 19.227 14.332 18.729C14.889 18.192 15.262 17.392 15.511 16.22L15.596 15.82H21.61V15.859C21.61 15.905 21.269 17.484 21.092 18.119C20.909 18.781 20.712 19.338 20.483 19.836C19.9 21.107 19.087 22.09 17.921 22.922C16.794 23.708 15.595 24.193 14.147 24.449C12.902 24.665 11.625 24.685 10.209 24.685C10.214 24.687 9.664 24.68 9.592 24.68Z" fill="#063773"/>
<path d="M76.963 24.68C74.414 24.68 71.781 24.621 70.051 23.881C69.153 23.501 68.531 22.99 68.092 22.276C67.607 21.49 67.371 20.468 67.371 19.164C67.371 18.168 67.515 17.002 67.79 15.685C67.856 15.384 69.356 8.373 69.454 8C69.847 6.539 70.352 5.333 70.987 4.324C72.081 2.588 73.542 1.467 75.58 0.799C77.278 0.249 79.44 0 82.578 0H82.604C84.255 0 85.611 0.118 86.751 0.354C88.094 0.636 89.123 1.101 89.804 1.723C90.315 2.195 90.643 2.765 90.78 3.426C90.852 3.76 90.885 4.134 90.885 4.533C90.885 5.463 90.695 6.44 90.544 7.226C90.524 7.337 90.498 7.449 90.478 7.56L90.471 7.593H84.391L84.398 7.547C84.398 7.547 84.418 7.364 84.424 7.278C84.424 7.271 84.45 7.029 84.45 6.675C84.45 6.144 84.201 5.732 83.697 5.411C83.297 5.182 82.78 5.103 82.288 5.044C81.764 4.978 81.174 4.972 80.617 4.972C79.595 4.972 78.822 5.051 78.186 5.228C77.682 5.366 77.262 5.569 76.902 5.837C76.398 6.217 76.004 6.767 75.703 7.514C75.421 8.208 75.218 9.041 74.995 10.069L74.163 13.987C73.894 15.251 73.704 16.208 73.704 17.034C73.704 17.512 73.77 17.886 73.907 18.22C74.123 18.751 74.582 19.163 75.204 19.386C75.8 19.602 76.56 19.7 77.661 19.7C78.395 19.7 78.998 19.687 79.548 19.621C80.498 19.51 81.179 19.221 81.69 18.723C82.247 18.186 82.62 17.386 82.869 16.214L82.954 15.814H88.968V15.853C88.968 15.899 88.627 17.478 88.45 18.113C88.267 18.775 88.07 19.332 87.841 19.83C87.258 21.108 86.445 22.084 85.279 22.916C84.152 23.702 82.953 24.187 81.505 24.443C80.265 24.661 77.035 24.68 76.963 24.68Z" fill="#063773"/>
<path d="M63.912 24.484H46.419L46.432 24.438L51.326 1.415C51.411 0.989003 51.568 0.701003 51.824 0.504003C52.086 0.301003 52.446 0.203003 52.925 0.203003H67.686C68.053 0.203003 68.315 0.288003 68.472 0.445003C68.59 0.569003 68.655 0.746003 68.655 0.963003V0.983003C68.655 1.075 68.642 1.16 68.622 1.252L67.862 4.842H56.437L55.448 9.605H66.173L65.197 14.093H54.471L53.252 19.839H64.914L63.912 24.484Z" fill="#063773"/>
<path d="M95.282 24.484H89.451L89.464 24.438L94.338 1.50001C94.456 1.00201 94.639 0.661007 94.915 0.452007C95.131 0.288007 95.406 0.210007 95.76 0.210007H99.213C99.586 0.210007 99.862 0.295007 100.039 0.466007C100.177 0.597007 100.249 0.794007 100.249 1.02301C100.249 1.09501 100.242 1.16701 100.229 1.23901L95.282 24.484Z" fill="#063773"/>
<path d="M111.34 24.484H103.989L103.976 24.458L98.532 11.866L98.552 11.846L107.967 1.625C108.55 0.989003 108.891 0.668003 109.199 0.478003C109.527 0.275003 109.815 0.203003 110.287 0.203003H115.03C115.253 0.203003 115.39 0.275003 115.469 0.341003C115.515 0.380003 115.548 0.420003 115.567 0.459003C115.58 0.485003 115.593 0.518003 115.593 0.557003H115.6L115.593 0.636003C115.586 0.734003 115.534 0.898003 115.337 1.114L105.175 12.036L111.34 24.484Z" fill="#063773"/>
<path d="M37.594 24.484H37.548L37.561 24.438L39.631 14.63H30.02L27.923 24.484H22.092L22.105 24.438C22.302 23.508 26.934 1.638 26.966 1.514C27.136 0.793003 27.425 0.544003 27.654 0.413003C27.903 0.269003 28.25 0.203003 28.742 0.203003H31.893C32.057 0.203003 32.325 0.275003 32.529 0.419003C32.64 0.498003 32.726 0.589003 32.778 0.688003C32.844 0.806003 32.876 0.937003 32.876 1.088C32.876 1.154 32.869 1.226 32.856 1.298C32.83 1.436 31.231 8.911 31.074 9.651H40.692C41.472 5.962 42.409 1.566 42.422 1.514C42.592 0.793003 42.881 0.544003 43.11 0.413003C43.359 0.269003 43.706 0.203003 44.198 0.203003H47.349C47.513 0.203003 47.781 0.275003 47.985 0.419003C48.096 0.498003 48.182 0.589003 48.234 0.688003C48.3 0.806003 48.332 0.937003 48.332 1.088C48.332 1.154 48.325 1.226 48.312 1.298C48.286 1.442 43.588 23.508 43.385 24.452L43.378 24.485L37.594 24.484Z" fill="#063773"/>
<path d="M128.538 4.947C128.99 5.065 129.344 5.288 129.534 5.661C129.658 5.91 129.717 6.198 129.717 6.545C129.717 6.899 129.658 7.312 129.56 7.796C129.422 8.432 129.291 8.956 129.088 9.408C128.885 9.86 128.61 10.234 128.21 10.548C127.411 11.177 126.166 11.557 123.958 12.055C121.036 12.704 119.025 13.241 117.603 13.948C116.181 14.656 115.356 15.501 114.733 16.837C114.32 17.728 114.006 18.842 113.704 20.25L112.878 24.443H131.793L132.677 20.197H119.515C119.515 20.197 119.718 19.175 119.888 18.801C120.104 18.316 120.386 17.956 120.753 17.687C121.12 17.418 121.565 17.241 122.103 17.091C123.184 16.79 124.678 16.587 126.873 16.03C129.579 15.329 131.407 14.562 132.697 13.324C133.988 12.086 134.774 10.343 135.35 7.611C135.566 6.602 135.684 5.606 135.684 4.853C135.684 3.772 135.474 2.94 135.101 2.304C134.728 1.668 134.19 1.21 133.483 0.869003C132.081 0.194003 130.017 0.0370026 127.573 0.0370026C124.461 0.0370026 122.011 0.358003 120.189 1.478C118.368 2.592 117.103 4.623 116.396 7.931L116.199 8.868H121.951L122.174 7.833C122.397 6.844 122.606 6.169 122.98 5.691C123.353 5.206 123.897 4.977 124.631 4.885C125.129 4.819 125.725 4.806 126.465 4.806C126.583 4.806 126.694 4.806 126.806 4.806C127.523 4.796 128.086 4.829 128.538 4.947Z" fill="#063773"/>
<path d="M144.407 2.608C143.739 3.302 138.124 9.173 135.824 11.584C135.365 12.075 134.874 12.619 134.658 13.071C134.481 13.399 134.252 14.309 134.134 14.958C133.892 16.314 133.708 17.552 133.597 18.057C133.571 18.188 133.558 18.306 133.558 18.417C133.558 18.836 133.735 19.111 133.971 19.315C134.2 19.512 134.515 19.603 134.823 19.603C135.105 19.603 145.967 19.603 145.967 19.603L144.938 24.445L150.802 23.888L151.713 19.597H153.81L154.721 15.306H152.624C152.624 15.306 154.721 5.518 154.786 5.151C155.507 1.187 153.862 0.0279999 150.154 0.0279999C149.209 0.0459999 147.067 -0.151 144.407 2.608ZM146.87 15.318H138.451L148.469 4.94H149.078L146.87 15.318Z" fill="#063773"/>
<path d="M131.277 38C127.49 38 123.854 36.991 120.761 35.078C117.721 33.204 115.952 30.99 115.113 29.738L114.006 32.588C113.908 32.85 113.633 33.014 113.338 32.968C113.05 32.916 112.834 32.667 112.834 32.378L112.775 26.789V26.782C112.775 26.625 112.841 26.474 112.952 26.369C113.07 26.258 113.221 26.192 113.384 26.192H119.071H119.078C119.36 26.199 119.602 26.408 119.655 26.683C119.662 26.722 119.668 26.755 119.668 26.794C119.668 27.043 119.511 27.266 119.281 27.357L116.51 28.431C118.941 30.6 123.953 34.085 130.989 34.085C131.592 34.085 132.201 34.059 132.804 34.006C135.772 33.757 138.766 33.023 141.465 31.896C143.83 30.907 145.914 29.649 147.506 28.247L144.643 27.402C144.387 27.33 144.204 27.094 144.204 26.825C144.204 26.805 144.204 26.786 144.204 26.766C144.23 26.478 144.466 26.248 144.754 26.222L150.303 25.718C150.329 25.718 150.349 25.711 150.362 25.711C150.506 25.711 150.644 25.763 150.749 25.849C150.873 25.954 150.952 26.105 150.965 26.262C151.424 31.72 151.424 31.72 151.424 31.739C151.424 32.008 151.241 32.25 150.978 32.322C150.926 32.335 150.873 32.342 150.821 32.342C150.585 32.342 150.375 32.211 150.271 32.008L148.928 29.44C147.854 30.894 145.98 32.945 143.045 34.727C140.071 36.535 136.749 37.61 133.172 37.911L132.812 37.944C132.306 37.98 131.788 38 131.277 38Z" fill="#063773"/>
</g>
<defs>
<clipPath id="clip0_43_2">
<rect width="155" height="38" fill="white"/>
</clipPath>
</defs>
</svg>
