<svg width="133" height="154" viewBox="0 0 133 154" fill="none" xmlns="http://www.w3.org/2000/svg">
<g clip-path="url(#clip0_21_3)">
<path d="M61.09 70.58C61.4 72.33 60.24 73.99 58.5 74.3L12.1 82.63C10.36 82.94 8.69001 81.79 8.38001 80.04L0.0500053 33.64C-0.259995 31.9 0.900005 30.23 2.64001 29.92L49.04 21.59C50.78 21.27 52.45 22.44 52.76 24.18L61.09 70.58Z" fill="#688D0F"/>
<path d="M122.17 59.62C122.48 61.36 121.33 63.03 119.58 63.35L73.18 71.67C71.43 71.98 69.77 70.82 69.45 69.08L61.13 22.68C60.81 20.93 61.98 19.27 63.72 18.96L110.12 10.63C111.87 10.31 113.53 11.47 113.85 13.22L122.18 59.62H122.17Z" fill="#FAB914"/>
<path d="M72.02 131.47C72.33 133.22 71.17 134.88 69.43 135.2L23.03 143.53C21.29 143.84 19.62 142.68 19.3 140.94L10.98 94.54C10.67 92.8 11.83 91.13 13.57 90.81L59.97 82.49C61.71 82.17 63.38 83.34 63.69 85.08L72.02 131.48V131.47Z" fill="#DC3823"/>
<path d="M133.1 121.62C133.41 123.4 132.25 125.11 130.51 125.43L84.11 133.94C82.37 134.26 80.7 133.08 80.39 131.29L72.06 83.85C71.75 82.06 72.91 80.36 74.65 80.04L121.05 71.52C122.79 71.2 124.46 72.39 124.77 74.17L133.1 121.61V121.62Z" fill="#5A8BBE"/>
<path d="M122.21 124.77C123.71 133.09 118.17 141.05 109.85 142.54C101.53 144.03 93.58 138.49 92.08 130.17C90.59 121.85 96.12 113.89 104.44 112.4C112.76 110.91 120.72 116.44 122.21 124.77Z" fill="#A4C4E4"/>
<path d="M61.13 135.73C62.62 144.05 57.09 152.01 48.77 153.5C40.45 154.99 32.49 149.46 31 141.13C29.51 132.81 35.04 124.86 43.37 123.36C51.68 121.87 59.65 127.4 61.14 135.72L61.13 135.73Z" fill="#F2966D"/>
<path d="M10.87 28.97C9.38001 20.65 14.91 12.69 23.23 11.2C31.55 9.71001 39.51 15.24 41 23.57C42.49 31.89 36.96 39.84 28.64 41.34C20.32 42.83 12.36 37.3 10.87 28.97Z" fill="#C3D799"/>
<path d="M71.95 18.01C70.46 9.68 75.99 1.73 84.31 0.240003C92.63 -1.25 100.59 4.28 102.08 12.6C103.57 20.92 98.04 28.88 89.72 30.37C81.4 31.86 73.45 26.33 71.95 18.01Z" fill="#F7ED91"/>
</g>
<defs>
<clipPath id="clip0_21_3">
<rect width="133" height="154" fill="white"/>
</clipPath>
</defs>
</svg>
