<svg width="126" height="126" viewBox="0 0 126 126" fill="none" xmlns="http://www.w3.org/2000/svg">
<g filter="url(#filter0_i_3_25)">
<path fill-rule="evenodd" clip-rule="evenodd" d="M57.8038 23C60.1132 19 65.8867 19 68.1961 23L106.301 89C108.611 93 105.724 98 101.105 98L91.2082 98C88.9356 98 86.858 96.716 85.8416 94.6833L71.6583 66.3167C70.642 64.284 68.5644 63 66.2918 63H45.1021C40.4833 63 37.5966 58 39.906 54L57.8038 23ZM59.2918 70C61.5644 70 63.642 71.284 64.6583 73.3167L72.6583 89.3167C74.653 93.3061 71.7521 98 67.2918 98H56.1904C53.5317 98 51.1901 96.2504 50.4365 93.7007L49.1343 89.2953C47.6918 84.4152 41.2109 83.4337 38.3881 87.6679L33.2812 95.3282C32.1684 96.9974 30.295 98 28.2889 98H24.8949C20.2761 98 17.3893 93 19.6987 89L28.9363 73C30.0081 71.1436 31.9889 70 34.1325 70H59.2918Z" fill="#FFFEFE"/>
</g>
<defs>
<filter id="filter0_i_3_25" x="18.8859" y="20" width="88.2281" height="82" filterUnits="userSpaceOnUse" color-interpolation-filters="sRGB">
<feFlood flood-opacity="0" result="BackgroundImageFix"/>
<feBlend mode="normal" in="SourceGraphic" in2="BackgroundImageFix" result="shape"/>
<feColorMatrix in="SourceAlpha" type="matrix" values="0 0 0 0 0 0 0 0 0 0 0 0 0 0 0 0 0 0 127 0" result="hardAlpha"/>
<feOffset dy="4"/>
<feGaussianBlur stdDeviation="2"/>
<feComposite in2="hardAlpha" operator="arithmetic" k2="-1" k3="1"/>
<feColorMatrix type="matrix" values="0 0 0 0 0 0 0 0 0 0 0 0 0 0 0 0 0 0 0.25 0"/>
<feBlend mode="normal" in2="shape" result="effect1_innerShadow_3_25"/>
</filter>
</defs>
</svg>
