<svg width="274" height="264" viewBox="0 0 274 264" fill="none" xmlns="http://www.w3.org/2000/svg">
<g clip-path="url(#clip0_19_2)">
<path d="M45.7 26.5L91.5 0V52.8L45.7 79.2V26.5Z" fill="#FFDF43"/>
<path d="M91.5 52.8V0L137.2 26.5V79.2L91.5 52.8Z" fill="#E9B528"/>
<path d="M91.5 211.4V158.5L45.7 184.9V237.7L91.5 211.4Z" fill="#B7182E"/>
<path d="M137.2 237.7L91.5 211.4L45.7 237.7L91.5 264L137.2 237.7Z" fill="#EA5284"/>
<path d="M137 237.7L182.7 264V211.4L137 184.9V237.7Z" fill="#BCA3CE"/>
<path d="M182.7 211.4V264L228.5 237.7V184.9L182.7 211.4Z" fill="#6A509D"/>
<path d="M45.7 132.2V184.9L0 158.5V105.7L45.7 132.2Z" fill="#E46437"/>
<path d="M91.5 105.7L45.7 132.2L0 105.7L45.7 79.4L91.5 105.7Z" fill="#F59F40"/>
<path d="M228.5 79.2L182.7 105.7V52.8L228.5 26.3V79.2Z" fill="#4E9A53"/>
<path d="M228.5 26.3L182.7 52.8L137 26.3L182.7 0L228.5 26.3Z" fill="#AECC53"/>
<path d="M274.2 105.7L228.5 79.2V132L274.2 158.4V105.7Z" fill="#4A96D2"/>
<path d="M274.2 158.4L228.5 132L182.7 158.4L228.5 184.9L274.2 158.4Z" fill="#83D0F5"/>
</g>
<defs>
<clipPath id="clip0_19_2">
<rect width="274" height="264" fill="white"/>
</clipPath>
</defs>
</svg>
