<?xml version="1.0" encoding="utf-8"?>
<!-- Generator: Adobe Illustrator 26.4.1, SVG Export Plug-In . SVG Version: 6.00 Build 0)  -->
<svg version="1.1" id="Ebene_1" xmlns="http://www.w3.org/2000/svg" xmlns:xlink="http://www.w3.org/1999/xlink" x="0px" y="0px"
	 viewBox="0 0 1440 264" style="enable-background:new 0 0 1440 264;" xml:space="preserve">
<style type="text/css">
	.st0{fill:#78777A;}
	.st1{fill:#FFDF43;}
	.st2{fill:#E9B528;}
	.st3{fill:#B7182E;}
	.st4{fill:#EA5284;}
	.st5{fill:#BCA3CE;}
	.st6{fill:#6A509D;}
	.st7{fill:#E46437;}
	.st8{fill:#F59F40;}
	.st9{fill:#4E9A53;}
	.st10{fill:#AECC53;}
	.st11{fill:#4A96D2;}
	.st12{fill:#83D0F5;}
</style>
<g>
	<polygon class="st0" points="378.4,193 378.4,53 383.6,53 445.2,143.6 506,53 511.4,53 511.4,193 499.8,193 499.8,81.7 
		446.4,160.8 443.6,160.8 390,81.8 390,193 	"/>
	<path class="st0" d="M548,67.4c0-5.5,4.4-9.8,10-9.8c5.3,0,9.8,4.3,9.8,9.8s-4.4,9.8-9.8,9.8C552.5,77.2,548,73.1,548,67.4
		 M563.3,196.8h-11.6V93.6h11.6V196.8z"/>
	<path class="st0" d="M599.8,184c-9.8-10.3-14.9-23.1-14.9-38.8c0-15.8,5-28.8,15.1-39c10.1-10.3,23.1-15.3,38.8-15.3
		c20.3,0,38.3,10.3,46.1,26.7l-9.4,5.3c-6.9-13.2-21-21.4-36.7-21.4c-12.1,0-22.4,4.1-30.2,12.3c-7.8,8.2-11.9,18.5-11.9,31.3
		c0,12.5,3.9,23,11.6,31.1s17.6,12.1,29.5,12.1c15.7,0,30.4-8.9,37.2-21.4l9.4,5.9c-4.1,8-10.5,14.2-18.9,19
		c-8.5,4.8-17.8,7.1-27.8,7.1C622.4,199.1,609.7,194.1,599.8,184"/>
	<path class="st0" d="M702.6,196.8V93.6h11v16.5c5.5-13,15.5-19.2,29.9-19.2c4.1,0,8.4,0.5,12.8,1.8l-1.4,11
		c-3.7-1.2-7.3-1.8-11-1.8c-18.7,0-29.7,14.6-29.7,36.1V197h-11.6V196.8z"/>
	<path class="st0" d="M771.1,106.6c10.1-10.5,23-15.7,38.4-15.7c15.5,0,28.1,5.2,38.4,15.7c10.1,10.5,15.3,23.1,15.3,38.4
		s-5,28.1-15.3,38.6c-10.1,10.5-23,15.7-38.4,15.7c-15.5,0-28.1-5.2-38.4-15.7c-10.1-10.5-15.3-23.3-15.3-38.6
		C755.8,129.9,761,117.1,771.1,106.6 M839.6,176.1c7.8-8.5,11.9-18.9,11.9-31.1c0-12.1-4.1-22.6-11.9-31c-7.8-8.4-18-12.6-30.1-12.6
		c-11.9,0-22.1,4.3-30.1,12.8c-7.8,8.4-11.9,18.5-11.9,30.6c0,12.1,4.1,22.6,11.9,31.1c8.2,8.4,18.1,12.6,30.1,12.6
		C821.6,188.6,831.6,184.5,839.6,176.1"/>
	<path class="st0" d="M1026.4,101.8c7.5,7.3,11.2,17.6,11.2,30.6v64.2h-11.6v-63.2c0-19.9-11.2-31.8-28.3-31.8
		c-8.2,0-15.5,2.8-21.7,8.5c-6.4,5.5-9.4,13.9-9.4,24.9v61.7h-11.7v-61.9c0-20.3-11-33.3-28.1-33.3c-8.4,0-15.8,3-22.2,9.1
		c-6.4,6-9.4,15.5-9.4,27.9v58.2h-11.6V93.6H895V111c5.5-12.5,18-20.1,32.6-20.1c14.9,0,27.9,7.8,33.6,22.4
		c6.4-14.4,21-22.4,37-22.4C1009.7,90.7,1019.1,94.5,1026.4,101.8"/>
	<path class="st0" d="M1155.8,149.6H1069c1.8,23,16.5,38.6,41.8,38.6c13.3,0,28.5-4.8,37.7-12.3l5.3,8.9
		c-10,7.8-26.5,14.2-43.4,14.2c-38.1,0-53.6-27.2-53.6-54.3c0-15.7,4.6-28.3,14.1-38.6c9.4-10.3,21.7-15.3,37.2-15.3
		c13.9,0,25.3,4.4,34.3,13.5c9.1,8.9,13.7,20.8,13.7,36.1C1156.3,142,1156.1,145,1155.8,149.6 M1069,139.1h75.4
		c-0.2-23-15.1-37.4-36.1-37.4C1086.8,101.6,1071.3,116.5,1069,139.1"/>
	<path class="st0" d="M1176.4,196.8V93.6h11v16.5c5.5-13,15.5-19.2,29.9-19.2c4.1,0,8.4,0.5,12.8,1.8l-1.4,11
		c-3.7-1.2-7.3-1.8-11-1.8c-18.7,0-29.7,14.6-29.7,36.1V197h-11.6V196.8z"/>
	<path class="st0" d="M1244.8,184c-9.8-10.3-14.8-23.1-14.8-38.8c0-15.8,5-28.8,15.1-39c10.1-10.3,23.1-15.3,38.8-15.3
		c20.3,0,38.3,10.3,46.1,26.7l-9.4,5.3c-6.9-13.2-21-21.4-36.7-21.4c-12.1,0-22.4,4.1-30.2,12.3c-7.8,8.2-11.9,18.5-11.9,31.3
		c0,12.5,3.9,23,11.6,31.1s17.6,12.1,29.5,12.1c15.7,0,30.4-8.9,37.2-21.4l9.4,5.9c-4.1,8-10.5,14.2-18.9,19
		c-8.5,4.8-17.8,7.1-27.8,7.1C1267.2,199.1,1254.5,194.1,1244.8,184"/>
	<path class="st0" d="M1439.4,149.6h-86.8c1.8,23,16.5,38.6,41.8,38.6c13.3,0,28.5-4.8,37.9-12.3l5.3,8.9
		c-10,7.8-26.5,14.2-43.4,14.2c-38.1,0-53.6-27.2-53.6-54.3c0-15.7,4.6-28.3,14.1-38.6c9.4-10.3,21.7-15.3,37.2-15.3
		c13.9,0,25.3,4.4,34.3,13.5c9.1,8.9,13.7,20.8,13.7,36.1C1440.1,142,1439.9,145,1439.4,149.6 M1352.8,139.1h75.4
		c-0.2-23-15.1-37.4-36.1-37.4C1370.4,101.6,1355.1,116.5,1352.8,139.1"/>
	<polygon class="st1" points="45.7,26.5 91.5,0 91.5,52.8 45.7,79.2 	"/>
	<polygon class="st2" points="91.5,52.8 91.5,0 137.2,26.5 137.2,79.2 	"/>
	<polygon class="st3" points="91.5,211.4 91.5,158.5 45.7,184.9 45.7,237.7 	"/>
	<polygon class="st4" points="137.2,237.7 91.5,211.4 45.7,237.7 91.5,264 	"/>
	<polygon class="st5" points="137,237.7 182.7,264 182.7,211.4 137,184.9 	"/>
	<polygon class="st6" points="182.7,211.4 182.7,264 228.5,237.7 228.5,184.9 	"/>
	<polygon class="st7" points="45.7,132.2 45.7,184.9 0,158.5 0,105.7 	"/>
	<polygon class="st8" points="91.5,105.7 45.7,132.2 0,105.7 45.7,79.4 	"/>
	<polygon class="st9" points="228.5,79.2 182.7,105.7 182.7,52.8 228.5,26.3 	"/>
	<polygon class="st10" points="228.5,26.3 182.7,52.8 137,26.3 182.7,0 	"/>
	<polygon class="st11" points="274.2,105.7 228.5,79.2 228.5,132 274.2,158.4 	"/>
	<polygon class="st12" points="274.2,158.4 228.5,132 182.7,158.4 228.5,184.9 	"/>
</g>
</svg>
