<?xml version="1.0" encoding="UTF-8"?>
<svg id="Ebene_2" data-name="Ebene 2" xmlns="http://www.w3.org/2000/svg" viewBox="0 0 37.13 54.44">
  <defs>
    <style>
      .cls-1 {
        fill: #a7d7a5;
      }

      .cls-2 {
        fill: #bcd126;
      }

      .cls-3 {
        fill: #abd946;
      }

      .cls-4 {
        fill: #8686d1;
      }

      .cls-5 {
        fill: #634fc4;
      }
    </style>
  </defs>
  <g id="Ebene_1-2" data-name="Ebene 1">
    <g>
      <path class="cls-2" d="M18.07,48.56c-6.09-2.07-10.83-1.75-13.93-1.02,3.4,4.2,8.6,6.89,14.43,6.89,4.8,0,9.16-1.84,12.46-4.83-3.52,.5-8.18,.57-12.95-1.05Z"/>
      <path class="cls-5" d="M19.07,1.84C7.85-1.97,.19,1.31,.02,1.38h-.02V7.86s7.2-3.41,17.78,.04c12.1,3.94,19.35,.04,19.35,.04V1.39h0s-8.32,3.75-18.06,.44Z"/>
      <path class="cls-4" d="M19.07,13.58c-11.35-3.85-19.07-.44-19.07-.44v6.47s7.2-3.41,17.78,.04c12.1,3.94,19.35,.04,19.35,.04v-6.54s-8.31,3.75-18.06,.44Z"/>
      <path class="cls-1" d="M19.07,25.33c-11.35-3.85-19.07-.44-19.07-.44v6.46s7.2-3.41,17.78,.04c12.1,3.94,19.35,.04,19.35,.04v-6.54s-8.31,3.75-18.06,.44Z"/>
      <path class="cls-3" d="M19.07,37.07c-11.05-3.75-18.64-.63-19.03-.46,.08,2.11,.51,4.13,1.24,6,2.51-.8,8.55-2.07,16.5,.52,8.54,2.78,14.65,1.66,17.51,.75,1.06-2.21,1.69-4.65,1.8-7.24-.41,.18-8.52,3.65-18.02,.43Z"/>
    </g>
  </g>
</svg>