<svg width="159" height="64" viewBox="0 0 159 64" fill="none" xmlns="http://www.w3.org/2000/svg">
<g clip-path="url(#clip0_1075_8504)">
<path d="M68.5881 5.64694C71.4116 5.64694 73.5293 6.35283 73.5293 9.41165C73.5293 11.294 72.5881 12.5881 70.8234 13.1764L71.7646 14.8234C72.4705 16.1175 73.0587 17.1764 73.9999 18.4705C74.1175 18.5881 73.7646 18.7058 73.294 18.7058H72.9411C72.3528 18.7058 72.1175 18.5881 71.9999 18.3528C71.294 17.294 70.9411 16.5881 70.3528 15.5293L69.1764 13.294H67.294V18.4705C67.294 18.5881 67.0587 18.7058 66.5881 18.7058H66.3528C65.8822 18.7058 65.5293 18.5881 65.5293 18.4705V5.5293H68.5881V5.64694ZM67.1764 12.1175H68.8234C70.8234 12.1175 71.6469 11.0587 71.6469 9.5293C71.6469 7.41165 69.9999 7.17636 68.7058 7.17636H67.0587L67.1764 12.1175Z" fill="#1C323A"/>
<path d="M76.7058 4.94141C77.4117 4.94141 77.5294 5.05905 77.5294 5.1767V10.2355C78.1176 9.52964 79.4117 9.05905 80.4705 9.05905C81.4117 9.05905 82.3529 9.41199 82.9411 10.0002C83.647 10.7061 83.8823 11.6473 83.8823 13.0591V18.5885C83.8823 18.7061 83.8823 18.8238 83.1764 18.8238H83.0588C82.3529 18.8238 82.2352 18.7061 82.2352 18.5885V13.7649C82.2352 12.2355 82.1176 11.5296 81.7646 11.0591C81.4117 10.8238 80.8235 10.5885 79.9999 10.5885C79.2941 10.5885 78.4705 10.8238 77.9999 11.2943C77.7647 11.5296 77.5294 11.7649 77.5294 12.5885C77.5294 13.0591 77.4117 14.0002 77.4117 15.0591V18.7061C77.4117 18.8238 77.4117 18.9414 76.7058 18.9414H76.5882C75.8823 18.9414 75.7646 18.8238 75.7646 18.7061V5.1767C75.7646 5.05905 75.7646 4.94141 76.4705 4.94141H76.7058Z" fill="#1C323A"/>
<path d="M87.7645 14.588C87.8821 15.6468 88.1174 16.3527 88.7057 16.8233C89.1763 17.2939 89.8821 17.5292 90.8233 17.5292C91.6468 17.5292 92.3527 17.2939 93.2939 16.9409C93.4116 16.8233 93.5292 16.8233 93.7645 17.2939L93.8821 17.5292C94.1174 17.9998 94.1174 18.1174 93.8821 18.2351C92.941 18.8233 91.7645 19.0586 90.588 19.0586C87.6468 19.0586 86.1174 17.1762 86.1174 14.2351C86.1174 11.2939 87.7645 9.05859 90.4704 9.05859C92.1174 9.05859 93.1763 9.88212 93.7645 11.0586C94.2351 11.8821 94.3527 12.9409 94.3527 13.9998C94.3527 14.588 94.3527 14.7057 94.1174 14.7057L87.7645 14.588ZM92.588 13.2939C92.588 11.8821 91.8821 10.588 90.3527 10.588C89.0586 10.588 87.9998 11.4115 87.7645 13.2939H92.588Z" fill="#1C323A"/>
<path d="M97.2939 5.05859C97.8821 5.05859 98.4704 5.52918 98.4704 6.23506C98.4704 6.94095 97.9998 7.41153 97.2939 7.41153C96.588 7.41153 96.1174 6.94095 96.1174 6.23506C96.1174 5.52918 96.7057 5.05859 97.2939 5.05859ZM97.4116 9.17624C98.1174 9.17624 98.1174 9.29389 98.1174 9.41153V18.588C98.1174 18.7057 98.1174 18.8233 97.4116 18.8233H97.2939C96.588 18.8233 96.4704 18.8233 96.4704 18.588V9.41153C96.4704 9.29389 96.588 9.17624 97.4116 9.17624Z" fill="#1C323A"/>
<path d="M101.764 9.17624C102.47 9.17624 102.47 9.29389 102.47 9.41154V10.2351C103.059 9.52918 104.353 9.05859 105.411 9.05859C106.353 9.05859 107.294 9.41154 107.882 9.99977C108.588 10.7057 108.823 11.6468 108.823 13.0586V18.588C108.823 18.7057 108.823 18.8233 108.117 18.8233H108C107.294 18.8233 107.176 18.7057 107.176 18.588V13.7645C107.176 12.2351 107.059 11.5292 106.706 11.0586C106.47 10.8233 105.882 10.588 105.059 10.588C104.353 10.588 103.529 10.8233 103.059 11.2939C102.823 11.5292 102.588 11.7645 102.588 12.588C102.588 13.0586 102.47 13.9998 102.47 15.0586V18.7057C102.47 18.8233 102.47 18.9409 101.764 18.9409H101.647C100.941 18.9409 100.823 18.8233 100.823 18.7057V12.4704C100.823 11.1762 100.823 9.99977 100.823 9.52918C100.823 9.29389 100.941 9.17624 101.764 9.17624Z" fill="#1C323A"/>
<path d="M112.353 5.05859C112.941 5.05859 113.529 5.52918 113.529 6.23506C113.529 6.94095 113.059 7.41153 112.353 7.41153C111.647 7.41153 111.176 6.94095 111.176 6.23506C111.176 5.52918 111.765 5.05859 112.353 5.05859ZM112.47 9.17624C113.176 9.17624 113.176 9.29389 113.176 9.41153V18.588C113.176 18.7057 113.176 18.8233 112.47 18.8233H112.353C111.647 18.8233 111.529 18.7057 111.529 18.588V9.41153C111.529 9.29389 111.647 9.17624 112.47 9.17624Z" fill="#1C323A"/>
<path d="M121.647 10.8242C121.294 11.2948 121.176 11.2948 121.058 11.1772C120.353 10.7066 119.764 10.3536 118.941 10.3536C118.235 10.3536 117.058 10.5889 117.058 11.6477C117.058 12.7066 118.117 12.9419 118.941 13.0595C120.47 13.4125 122 14.0007 122 15.883C122 17.7654 120.353 18.9419 118.353 18.9419C117.176 18.9419 116 18.4713 115.294 18.0007C115.058 17.883 115.176 17.7654 115.411 17.2948L115.529 17.0595C115.764 16.5889 115.882 16.5889 116.117 16.7066C116.823 17.0595 117.647 17.4125 118.47 17.4125C119.294 17.4125 120.47 16.9419 120.47 15.883C120.47 14.9419 119.294 14.5889 118.353 14.3536C117.411 14.1183 116.706 13.883 116.235 13.4125C115.764 12.9419 115.529 12.3536 115.529 11.6477C115.529 9.88304 117.058 8.82422 118.941 8.82422C120.117 8.82422 121.176 9.17716 121.764 9.88304C121.882 10.0007 122 10.1183 121.647 10.5889V10.8242Z" fill="#1C323A"/>
<path d="M131.059 17.5296C131.294 18.0002 131.176 18.1179 131.059 18.1179C130.118 18.5885 129.059 18.9414 128 18.9414C125.176 18.9414 123.765 16.8238 123.765 14.1179C123.765 10.8238 125.765 8.94141 128.235 8.94141C129.412 8.94141 130.353 9.29435 131.176 9.88258C131.294 10.0002 131.294 10.1179 131.059 10.7061C130.823 11.2943 130.588 11.2943 130.471 11.1767C129.765 10.7061 129.059 10.4708 128.353 10.4708C126.706 10.4708 125.529 11.7649 125.529 14.0002C125.529 15.7649 126.235 17.412 128.235 17.412C129.059 17.412 129.882 17.1767 130.588 16.8238C130.706 16.7061 130.941 16.8238 131.059 17.1767V17.5296Z" fill="#1C323A"/>
<path d="M134.117 4.94141C134.823 4.94141 134.941 5.05905 134.941 5.1767V10.2355C135.529 9.52964 136.823 9.05905 137.882 9.05905C138.823 9.05905 139.765 9.41199 140.353 10.0002C141.059 10.7061 141.294 11.6473 141.294 13.0591V18.5885C141.294 18.7061 141.294 18.8238 140.588 18.8238H140.47C139.765 18.8238 139.647 18.7061 139.647 18.5885V13.7649C139.647 12.2355 139.529 11.5296 139.176 11.0591C138.823 10.5885 138.235 10.4708 137.412 10.4708C136.706 10.4708 135.882 10.7061 135.412 11.1767C135.176 11.412 134.941 11.6473 134.941 12.4708C134.941 12.9414 134.823 13.8826 134.823 14.9414V18.5885C134.823 18.7061 134.823 18.8238 134.117 18.8238H134C133.294 18.8238 133.176 18.7061 133.176 18.5885V5.1767C133.176 5.05905 133.176 4.94141 133.882 4.94141H134.117Z" fill="#1C323A"/>
<path d="M145.059 14.588C145.176 15.6468 145.412 16.3527 146 16.8233C146.47 17.2939 147.176 17.5292 148.118 17.5292C148.941 17.5292 149.647 17.2939 150.588 16.9409C150.706 16.8233 150.823 16.8233 151.059 17.2939L151.176 17.5292C151.412 17.9998 151.412 18.1174 151.176 18.2351C150.235 18.8233 149.059 19.0586 147.882 19.0586C144.941 19.0586 143.412 17.1762 143.412 14.2351C143.412 11.2939 145.059 9.05859 147.765 9.05859C149.412 9.05859 150.47 9.88212 151.059 11.0586C151.529 11.8821 151.647 12.9409 151.647 13.9998C151.647 14.588 151.647 14.7057 151.412 14.7057L145.059 14.588ZM150 13.2939C150 11.8821 149.294 10.588 147.765 10.588C146.47 10.588 145.412 11.4115 145.176 13.2939H150Z" fill="#1C323A"/>
<path d="M66.4704 25.1762C66.941 25.1762 67.294 25.1762 67.294 25.4115V30.9409H72.941V25.4115C72.941 25.2939 73.1763 25.1762 73.6469 25.1762H73.8822C74.3528 25.1762 74.7057 25.1762 74.7057 25.4115V38.1174C74.7057 38.2351 74.4704 38.3527 73.9999 38.3527H73.7646C73.294 38.3527 72.941 38.3527 72.941 38.1174V32.3527H67.1763V38.1174C67.1763 38.2351 66.941 38.3527 66.4704 38.3527H66.2352C65.7646 38.3527 65.4116 38.3527 65.4116 38.1174V25.2939C65.4116 25.1762 65.6469 25.0586 66.1175 25.0586C66.2352 25.1762 66.4704 25.1762 66.4704 25.1762Z" fill="#1C323A"/>
<path d="M84.2353 29.4119C85.1765 30.2354 85.647 31.5295 85.647 33.2942C85.647 36.706 83.8823 38.4707 81.0588 38.4707C80 38.4707 79.0588 38.2354 78.3529 37.5295C77.4117 36.706 76.9412 35.4119 76.9412 33.6472C76.9412 30.2354 78.7059 28.4707 81.5294 28.4707C82.5882 28.4707 83.5294 28.706 84.2353 29.4119ZM78.7059 33.5295C78.7059 35.1766 79.2941 36.9413 81.2941 36.9413C82.7059 36.9413 84 35.8825 84 33.2942C84 31.6472 83.4117 29.8825 81.4117 29.8825C80 29.8825 78.7059 30.9413 78.7059 33.5295Z" fill="#1C323A"/>
<path d="M94.5881 37.0589C94.8234 37.5295 94.7057 37.6472 94.5881 37.6472C93.6469 38.1178 92.5881 38.4707 91.5292 38.4707C88.7057 38.4707 87.2939 36.3531 87.2939 33.6472C87.2939 30.3531 89.2939 28.4707 91.7645 28.4707C92.941 28.4707 93.8822 28.8236 94.7057 29.4119C94.8234 29.5295 94.8234 29.6472 94.5881 30.2354C94.3528 30.8236 94.1175 30.8236 93.9998 30.706C93.294 30.2354 92.5881 30.0001 91.8822 30.0001C90.2351 30.0001 89.0587 31.2942 89.0587 33.5295C89.0587 35.2942 89.7645 37.0589 91.7645 37.0589C92.5881 37.0589 93.4116 36.8236 94.1175 36.4707C94.2351 36.3531 94.4704 36.4707 94.5881 36.8236V37.0589Z" fill="#1C323A"/>
<path d="M97.647 24.3535C98.3529 24.3535 98.4705 24.4712 98.4705 24.5888V29.6476C99.0588 28.9418 100.353 28.4712 101.412 28.4712C102.353 28.4712 103.294 28.8241 103.882 29.4123C104.588 30.1182 104.823 31.0594 104.823 32.4712V38.0006C104.823 38.1182 104.823 38.2359 104.118 38.2359H104C103.294 38.2359 103.176 38.1182 103.176 38.0006V33.2947C103.176 31.7653 103.059 31.0594 102.706 30.5888C102.353 30.1182 101.765 30.0006 100.941 30.0006C100.235 30.0006 99.4117 30.2359 98.9411 30.7065C98.7058 30.9418 98.4705 31.177 98.4705 32.0006C98.4705 32.4712 98.3529 33.4123 98.3529 34.4712V38.1182C98.3529 38.2359 98.3529 38.3535 97.647 38.3535H97.5293C96.8235 38.3535 96.7058 38.2359 96.7058 38.1182V24.5888C96.7058 24.4712 96.7058 24.3535 97.4117 24.3535H97.647Z" fill="#1C323A"/>
<path d="M113.176 30.354C112.823 30.8246 112.706 30.8246 112.588 30.7069C111.882 30.2363 111.294 29.8834 110.47 29.8834C109.764 29.8834 108.588 30.1187 108.588 31.1775C108.588 32.2363 109.647 32.4716 110.47 32.5893C112 32.9422 113.529 33.5304 113.529 35.4128C113.529 37.2952 111.882 38.4716 109.882 38.4716C108.706 38.4716 107.529 38.001 106.823 37.5304C106.588 37.4128 106.706 37.2951 106.941 36.8246L107.059 36.5893C107.294 36.1187 107.412 36.001 107.647 36.2363C108.353 36.5893 109.176 36.9422 110 36.9422C110.823 36.9422 112 36.4716 112 35.4128C112 34.4716 110.823 34.1187 109.882 33.8834C108.941 33.6481 108.235 33.4128 107.764 32.9422C107.294 32.4716 107.059 31.8834 107.059 31.1775C107.059 29.4128 108.588 28.2363 110.47 28.2363C111.647 28.2363 112.706 28.5893 113.294 29.2952C113.412 29.4128 113.529 29.5304 113.176 30.001V30.354Z" fill="#1C323A"/>
<path d="M122.588 37.0589C122.823 37.5295 122.706 37.6472 122.588 37.6472C121.647 38.1178 120.588 38.4707 119.529 38.4707C116.706 38.4707 115.294 36.3531 115.294 33.6472C115.294 30.3531 117.294 28.4707 119.765 28.4707C120.941 28.4707 121.882 28.8236 122.706 29.4119C122.823 29.5295 122.823 29.6472 122.588 30.2354C122.353 30.8236 122.117 30.8236 122 30.706C121.294 30.2354 120.588 30.0001 119.882 30.0001C118.235 30.0001 117.059 31.2942 117.059 33.5295C117.059 35.2942 117.765 37.0589 119.765 37.0589C120.588 37.0589 121.412 36.8236 122.117 36.4707C122.235 36.3531 122.47 36.4707 122.588 36.8236V37.0589Z" fill="#1C323A"/>
<path d="M125.647 24.3535C126.353 24.3535 126.471 24.4712 126.471 24.5888V29.6476C127.059 28.9418 128.353 28.4712 129.412 28.4712C130.353 28.4712 131.294 28.8241 131.882 29.4123C132.588 30.1182 132.823 31.0594 132.823 32.4712V38.0006C132.823 38.1182 132.823 38.2359 132.118 38.2359H132C131.294 38.2359 131.176 38.1182 131.176 38.0006V33.2947C131.176 31.7653 131.059 31.0594 130.706 30.5888C130.353 30.1182 129.765 30.0006 128.941 30.0006C128.235 30.0006 127.412 30.2359 126.941 30.7065C126.706 30.9418 126.471 31.177 126.471 32.0006C126.471 32.4712 126.353 33.4123 126.353 34.4712V38.1182C126.353 38.2359 126.353 38.3535 125.647 38.3535H125.529C124.823 38.3535 124.706 38.2359 124.706 38.1182V24.5888C124.706 24.4712 124.706 24.3535 125.412 24.3535H125.647Z" fill="#1C323A"/>
<path d="M136.235 28.5879C136.941 28.5879 137.059 28.7055 137.059 28.8232V33.6467C137.059 35.0585 137.176 35.882 137.529 36.3526C137.882 36.7055 138.47 36.9408 139.176 36.9408C139.882 36.9408 140.706 36.7055 141.176 36.2349C141.529 35.882 141.765 35.2938 141.765 33.2938V28.8232C141.765 28.7055 141.882 28.5879 142.47 28.5879H142.588C143.176 28.5879 143.294 28.7055 143.294 28.8232V35.0585C143.294 36.3526 143.294 37.5291 143.294 37.9997C143.294 38.1173 143.176 38.235 142.588 38.235H142.47C141.882 38.235 141.765 38.1173 141.765 37.9997V37.1761C141.059 37.882 140.117 38.3526 138.706 38.3526C137.765 38.3526 136.823 37.9997 136.235 37.4114C135.647 36.7055 135.294 35.7644 135.294 34.3526V28.8232C135.294 28.7055 135.294 28.5879 136 28.5879H136.235Z" fill="#1C323A"/>
<path d="M146.706 24.3535C147.294 24.3535 147.411 24.3535 147.411 24.5888C147.529 25.0594 147.529 27.2947 147.529 30.0006V36.1182C147.529 36.8241 147.647 37.0594 148.235 37.0594H148.47C148.588 37.0594 148.588 37.177 148.588 37.53C148.588 38.0006 148.588 38.1182 148.47 38.1182C148.235 38.2359 147.882 38.2359 147.647 38.2359C147.176 38.2359 146.588 38.1182 146.235 37.6476C146 37.2947 145.882 36.7065 145.882 35.7653V29.6476C145.882 27.7653 145.882 25.4123 145.764 24.5888C145.882 24.4712 146 24.3535 146.706 24.3535Z" fill="#1C323A"/>
<path d="M151.882 34.0001C152 35.0589 152.235 35.7648 152.823 36.2354C153.294 36.706 154 36.9413 154.941 36.9413C155.647 36.9413 156.47 36.706 157.412 36.3531C157.529 36.2354 157.647 36.2354 157.882 36.706L158 36.9413C158.235 37.4119 158.235 37.5295 158 37.6472C157.059 38.2354 155.882 38.4707 154.706 38.4707C151.765 38.4707 150.235 36.5883 150.235 33.6472C150.235 30.706 151.882 28.4707 154.588 28.4707C156.235 28.4707 157.294 29.2942 157.882 30.4707C158.353 31.2942 158.47 32.3531 158.47 33.4119C158.47 34.0001 158.47 34.1178 158.235 34.1178H151.882V34.0001ZM156.823 32.706C156.823 31.2942 156.117 30.0001 154.588 30.0001C153.294 30.0001 152.235 30.8236 152 32.706H156.823Z" fill="#1C323A"/>
<path d="M66.4704 45.1758C66.941 45.1758 67.294 45.1758 67.294 45.4111V51.6464L68.7057 50.117C70.3528 48.2346 71.5293 46.5875 72.2352 45.4111C72.3528 45.2934 72.4704 45.1758 73.0587 45.1758H73.1763C73.8822 45.1758 73.9999 45.1758 73.8822 45.4111C73.4116 46.4699 71.9999 48.7052 69.9999 50.7052L74.4704 58.117C74.5881 58.2346 74.2352 58.3522 73.6469 58.3522H73.294C72.8234 58.3522 72.4704 58.2346 72.3528 58.117L68.7057 51.8817L67.1763 53.5287V58.117C67.1763 58.2346 66.941 58.3522 66.4704 58.3522H66.2352C65.7646 58.3522 65.4116 58.3523 65.4116 58.117V45.4111C65.4116 45.2934 65.6469 45.1758 66.1175 45.1758H66.4704Z" fill="#1C323A"/>
<path d="M82.8234 49.4126C83.7646 50.2361 84.2352 51.5302 84.2352 53.2949C84.2352 56.7067 82.4705 58.4714 79.6469 58.4714C78.5881 58.4714 77.6469 58.2361 76.9411 57.5302C75.9999 56.7067 75.5293 55.4126 75.5293 53.6479C75.5293 50.2361 77.294 48.4714 80.1175 48.4714C81.294 48.4714 82.2352 48.8243 82.8234 49.4126ZM77.9999 45.2949C78.5881 45.2949 79.0587 45.7655 79.0587 46.3537C79.0587 46.942 78.5881 47.4126 77.9999 47.4126C77.4117 47.4126 76.9411 46.942 76.9411 46.3537C76.9411 45.7655 77.4117 45.2949 77.9999 45.2949ZM77.294 53.6479C77.294 55.2949 77.8822 57.0596 79.8822 57.0596C81.294 57.0596 82.5881 56.0008 82.5881 53.4126C82.5881 51.7655 81.9999 50.0008 79.9999 50.0008C78.5881 50.0008 77.294 51.0596 77.294 53.6479ZM82.2352 45.2949C82.8234 45.2949 83.294 45.7655 83.294 46.3537C83.294 46.942 82.8234 47.4126 82.2352 47.4126C81.6469 47.4126 81.1764 46.942 81.1764 46.3537C81.1764 45.7655 81.6469 45.2949 82.2352 45.2949Z" fill="#1C323A"/>
<path d="M87.294 44.4707C87.8822 44.4707 87.9998 44.4707 87.9998 44.706C88.1175 45.1766 88.1175 47.4119 88.1175 50.1178V56.2354C88.1175 56.9413 88.2351 57.1766 88.8234 57.1766H89.0587C89.1763 57.1766 89.1763 57.2942 89.1763 57.6472C89.1763 58.1178 89.1763 58.2354 89.0587 58.2354C88.8234 58.3531 88.4704 58.3531 88.2351 58.3531C87.7645 58.3531 87.1763 58.2354 86.8234 57.7648C86.5881 57.4119 86.4704 56.8236 86.4704 55.8825V49.7648C86.4704 47.8825 86.4704 45.4119 86.3528 44.706C86.3528 44.5884 86.5881 44.4707 87.294 44.4707Z" fill="#1C323A"/>
<path d="M92.1177 48.7055C92.8235 48.7055 92.8235 48.7055 92.8235 48.9408V49.7644C93.4118 49.0585 94.7059 48.5879 95.7647 48.5879C96.7059 48.5879 97.6471 48.9408 98.2353 49.5291C98.9412 50.2349 99.1765 51.1761 99.1765 52.5879V58.1173C99.1765 58.235 99.1765 58.3526 98.4706 58.3526H98.353C97.6471 58.3526 97.5294 58.235 97.5294 58.1173V53.4114C97.5294 51.882 97.4118 51.2938 97.0588 50.7055C96.7059 50.2349 96.1177 50.1173 95.2941 50.1173C94.5882 50.1173 93.7647 50.3526 93.2941 50.8232C93.0588 51.0585 92.8235 51.2938 92.8235 52.1173C92.8235 52.5879 92.7059 53.5291 92.7059 54.5879V58.235C92.7059 58.3526 92.7059 58.4702 92 58.4702H91.8824C91.1765 58.4702 91.0588 58.3526 91.0588 58.235V51.9997C91.0588 50.7055 91.0588 49.5291 91.0588 49.0585C91.1765 48.8232 91.2941 48.7055 92.1177 48.7055Z" fill="#1C323A"/>
<path d="M21.2941 57.1759C14.1176 54.7053 8.58822 55.0582 4.94116 55.9994C8.94116 60.9406 15.0588 64.117 21.8823 64.117C27.5294 64.117 32.7059 61.9994 36.5882 58.47C32.3529 58.9406 26.8235 59.0582 21.2941 57.1759Z" fill="#BCD126"/>
<path d="M22.4706 2.11877C9.17647 -2.35182 0.235294 1.53053 0 1.64818V9.29524C0 9.29524 8.47059 5.29524 20.9412 9.29524C35.1765 13.8835 43.7647 9.29524 43.7647 9.29524V1.64818C43.6471 1.64818 33.8824 6.00112 22.4706 2.11877Z" fill="#634FC4"/>
<path d="M22.4706 16.0026C9.05882 11.4143 0 15.4143 0 15.4143V23.0614C0 23.0614 8.47059 19.0614 20.9412 23.0614C35.1765 27.6496 43.7647 23.0614 43.7647 23.0614V15.4143C43.6471 15.532 33.8824 19.8849 22.4706 16.0026Z" fill="#8686D1"/>
<path d="M22.4706 29.7652C9.05882 25.2946 0 29.2946 0 29.2946V36.9416C0 36.9416 8.47059 32.9416 20.9412 36.9416C35.1765 41.5299 43.7647 36.9416 43.7647 36.9416V29.2946C43.6471 29.2946 33.8824 33.6475 22.4706 29.7652Z" fill="#A7D7A5"/>
<path d="M22.4706 43.6483C9.41176 39.1777 0.470588 42.8248 0 43.0601C0.117647 45.5307 0.588235 47.8836 1.41176 50.1189C4.35294 49.1777 11.5294 47.6483 20.8235 50.7071C30.8235 54.0013 38.1176 52.7072 41.4118 51.6483C42.7059 49.0601 43.4118 46.1189 43.5294 43.1777C43.1765 43.2954 33.6471 47.413 22.4706 43.6483Z" fill="#ABD946"/>
</g>
<defs>
<clipPath id="clip0_1075_8504">
<rect width="158.471" height="64" fill="white"/>
</clipPath>
</defs>
</svg>
